<?xml version="1.0" encoding="utf-8"?>
<!-- Generator: Adobe Illustrator 22.0.0, SVG Export Plug-In . SVG Version: 6.00 Build 0)  -->
<svg version="1.1" id="Layer_1" xmlns="http://www.w3.org/2000/svg" xmlns:xlink="http://www.w3.org/1999/xlink" x="0px" y="0px"
	 viewBox="0 0 800 800" style="enable-background:new 0 0 800 800;" xml:space="preserve">
<path d="M796,617.6c-0.1,88-56.6,157.8-141.7,175.1c-10.4,2.1-21.1,3.1-31.7,3.1c-148.2,0.2-296.5,0.7-444.7-0.1
	C92.8,795.4,24,737.5,7.2,654c-2.5-12.3-3-25.2-3.1-37.8C3.9,544,4,471.8,4,399.5c0-73.4-0.3-146.8,0.1-220.2
	C4.6,93.5,62.2,23.8,146.2,7.1c10.4-2.1,21.1-2.9,31.7-3c148-0.2,295.9-0.6,443.9,0c85.4,0.3,154.6,58.4,171.2,142.2
	c2.3,11.8,3,24,3,36C796.1,327.5,796.2,472.6,796,617.6z M611.9,221.2L518,176.1c-3.5-1.7-7.3-2.6-11.2-2.8l-1,0h-0.8
	c-7.4,0.1-14.4,3.1-19.7,8.3L305.8,345.4l-78.3-59.4c-7.3-5.6-17.5-5.1-24.3,1.1L178.1,310c-3.9,3.6-6.2,8.6-6.2,14v0.1
	c0,5.1,2.1,10.3,6.2,14L246,400l-67.9,61.9c-7.8,7.1-8.3,19.1-1.2,26.9c0.4,0.4,0.8,0.8,1.2,1.2l25.1,22.8c6.8,6.2,17,6.7,24.3,1.1
	l78.3-59.4l179.6,163.9c4.7,4.7,10.8,7.6,17.4,8.2l0.3,0c0.4,0,0.8,0,1.3,0.1c0.6,0,1.1,0,1.7,0l0.6,0c3.9-0.1,7.7-1,11.3-2.8
	l93.9-45.2c9.8-4.7,16.1-14.7,16.1-25.7V246.9C628.1,235.9,621.8,226,611.9,221.2z M513.9,503.3L377.7,400l136.2-103.3V503.3z"/>
</svg>
